<?xml version="1.0"?>
<svg xmlns="http://www.w3.org/2000/svg" xmlns:xlink="http://www.w3.org/1999/xlink" version="1.1" id="Capa_1" x="0px" y="0px" viewBox="0 0 496 496" style="enable-background:new 0 0 496 496;" xml:space="preserve" width="512px" height="512px" class=""><g><path d="M432,272.472v-95.976c0-20.944-13.368-38.776-32-45.544V112c0-13.232-10.768-24-24-24h-80v16h80c4.416,0,8,3.584,8,8v16.024  c-0.168,0-0.328-0.024-0.496-0.024c-17.36,0-33.496,9.368-42.112,24.44L268.72,279.624C262.944,289.728,252.136,296,240.496,296  C222.576,296,208,281.424,208,263.504V200h-16v63.504C192,290.24,213.76,312,240.496,312c17.36,0,33.496-9.368,42.112-24.44  l72.672-127.184C361.056,150.272,371.864,144,383.504,144c0.168,0,0.328,0.048,0.496,0.048v140.12  c-15.016,10.072-26,25.656-30.144,43.824H16V112c0-4.416,3.584-8,8-8h80V88H24C10.768,88,0,98.768,0,112v256  c0,13.232,10.768,24,24,24h96v32H88v16h224v-16h-32v-32h72v32c0,39.704,32.296,72,72,72s72-32.296,72-72v-80  C496,307,467.944,276.464,432,272.472z M400,148.656c9.528,5.672,16,15.968,16,27.848v95.968c-5.56,0.616-10.896,1.92-16,3.728  V148.656z M424,288c30.872,0,56,25.128,56,56v24H368v-24C368,313.128,393.128,288,424,288z M264,424H136v-32h128V424z M24,376  c-4.416,0-8-3.584-8-8v-24h336v32H24z M424,480c-30.872,0-56-25.128-56-56v-40h112v40C480,454.872,454.872,480,424,480z" data-original="#000000" class=""/><path d="M424,448v16c22.056,0,40-17.944,40-40h-16C448,437.232,437.232,448,424,448z" data-original="#000000" class=""/><rect x="416" y="304" width="16" height="32" data-original="#000000" class=""/><circle style="fill:#00B7FF" cx="200" cy="104" r="104" data-original="#F0BC5E" class="active-path" data-old_color="#PURCHA"/><path d="M200,96c-8.824,0-16-7.176-16-16s7.176-16,16-16s16,7.176,16,16h16c0-14.872-10.232-27.288-24-30.864V32h-16v17.136  C178.232,52.712,168,65.128,168,80c0,17.648,14.352,32,32,32c8.824,0,16,7.176,16,16s-7.176,16-16,16s-16-7.176-16-16h-16  c0,14.872,10.232,27.288,24,30.864V176h16v-17.136c13.768-3.576,24-15.992,24-30.864C232,110.352,217.648,96,200,96z" data-original="#000000" class=""/><rect x="128" y="96" width="16" height="16" data-original="#000000" class=""/><rect x="256" y="96" width="16" height="16" data-original="#000000" class=""/></g> </svg>
