<?xml version="1.0"?>
<svg xmlns="http://www.w3.org/2000/svg" xmlns:xlink="http://www.w3.org/1999/xlink" version="1.1" id="Capa_1" x="0px" y="0px" viewBox="0 0 496 496" style="enable-background:new 0 0 496 496;" xml:space="preserve" width="512px" height="512px" class=""><g><g>
	<path style="fill:#00B7FF" d="M456,80H320v56l0,0h56l-24,24l32,32l-24,24l-32-32l-8,8v40H88V80H40c-4.424,0-8,3.576-8,8v176h432   V88C464,83.576,460.424,80,456,80z" data-original="#F0BC5E" class="active-path" data-old_color="#F0BC5E"/>
	<path style="fill:#00B7FF" d="M272,208H120c-4.424,0-8-3.576-8-8v-32c0-4.424,3.576-8,8-8h152c4.424,0,8,3.576,8,8v32   C280,204.424,276.424,208,272,208z" data-original="#F0BC5E" class="active-path" data-old_color="#F0BC5E"/>
</g><path d="M456,48H328V0H80v48H40C17.944,48,0,65.944,0,88v360c0,28.264,16.448,48,40,48h416c23.552,0,40-19.736,40-48V88  C496,65.944,478.056,48,456,48z M372.688,192L360,204.688l-32-32l-16,16V144h44.688l-16,16L372.688,192z M296,128v96H96V80h216v48  H296z M312,211.312V224h-12.688L312,211.312z M312,16v48H96V16H312z M40,64h40v16H32v160h16V96h32v144h248v-44.688l32,32  L395.312,192l-32-32l32-32H328V96h120v144h16V80H328V64h128c13.232,0,24,10.768,24,24v168H16V88C16,74.768,26.768,64,40,64z M96,272  v32H64v-32H96z M64,320h32v32H64V320z M112,320h32v32h-32V320z M160,320h32v32h-32V320z M208,320h32v32h-32V320z M256,320h32v32h-32  V320z M304,320h32v32h-32V320z M352,320h32v32h-32V320z M352,304v-32h32v32H352z M336,304h-32v-32h32V304z M288,304h-32v-32h32V304z   M240,304h-32v-32h32V304z M192,304h-32v-32h32V304z M144,304h-32v-32h32V304z M64,368h32v32H64V368z M112,368h32v32h-32V368z   M160,368h176v32H160V368z M352,368h32v32h-32V368z M400,368h32v32h-32V368z M432,352h-32v-32h32V352z M432,304h-32v-32h32V304z   M456,480H40c-14.576,0-24-12.56-24-32h434.592v-16H16V272h32v144h400V272h32v160h-16.112v16H480C480,467.44,470.576,480,456,480z" data-original="#000000" class="" style="fill:#000000"/><rect x="112" y="96" width="184" height="16" data-original="#000000" class="" style="fill:#000000"/><rect x="216" y="128" width="64" height="16" data-original="#000000" class="" style="fill:#000000"/><rect x="112" y="128" width="72" height="16" data-original="#000000" class="" style="fill:#000000"/><rect x="112" y="32" width="16" height="16" data-original="#000000" class="" style="fill:#000000"/><rect x="144" y="32" width="16" height="16" data-original="#000000" class="" style="fill:#000000"/><rect x="176" y="32" width="16" height="16" data-original="#000000" class="" style="fill:#000000"/></g> </svg>
